<?xml version="1.0" encoding="UTF-8"?>
<svg viewBox="0 0 600 600" xmlns="http://www.w3.org/2000/svg">
 <path d="m335.94 30.576c-9.7931-0.14611-17.391 4.4395-17.391 13.79 0 11.508-2.9102 60.415 1.4053 76.239s21.586 38.972 34.518 54.676c10.069 12.227 4.3477 41.696 4.3477 56.081 0 14.385-2.8975 25.911-8.6515 25.911s-14.36 5.7522-20.114 11.506-11.516 12.956-18.708 7.2023-20.154-11.494-43.17-15.81-61.841-0.0234-86.296 8.6076-76.259 56.111-90.644 77.688c-14.385 21.578-15.799 87.732-14.361 97.802s-2.9083 17.283-10.101 8.6515-12.911-4.3038-12.911-4.3038-7.2023 14.37-7.2023 21.563 2.8546 14.361 2.8546 14.361-11.506 8.6506-11.506 14.405 11.516 15.83 18.708 24.461 31.651 25.9 41.721 24.461 28.775-0.0121 35.968 4.3038 24.447 10.068 46.024 11.506 81.978 5.7531 97.802 5.7531 20.168-2.8644 27.36-10.057-5.7853-15.841-10.101-25.911 14.404-7.1691 20.158-8.6076 21.594-11.506 31.664-11.506 8.6165 10.056 21.563 15.81 31.639 24.439 46.024 27.316c14.385 2.877 47.472 0.0121 58.98-4.3038s10.069-14.37 0-21.563-34.507-20.167-38.822-27.36-5.7433-15.82 1.4492-23.012 14.359-4.3029 25.867-10.057 15.81-23.044 15.81-33.113 1.3693-21.014 5.7531-27.316c3.6734-5.2813 5.1002-22.132 5.305-33.64 0.21874-12.289-5.2933-15.249-9.6088-22.441s4.3028-17.259 10.057-17.259 31.651-4.336 41.721-8.6515 20.167-23.033 27.36-31.664 1.418-27.315-8.6515-33.069-10.077-21.594-18.708-31.664-18.685-31.63-27.316-38.822-28.775-12.955-35.968-12.955-11.506 9e-4 -11.506-5.7531-1.4492-12.92-1.4492-25.867-16.243-68.465-37.373-102.15c-4.408-7.0273-11.558-5.4053-20.158-2.8985-5.6941 1.6599-8.6076 4.3556-8.6076 23.056s-11.505-0.03133-17.259-10.101-15.863-21.584-28.809-24.461c-2.4275-0.53941-4.7667-0.80069-7.0266-0.8344z"/>
</svg>
